<?xml version="1.0" encoding="UTF-8"?>
<svg id="Layer_1" data-name="Layer 1" xmlns="http://www.w3.org/2000/svg" viewBox="0 0 89.3 128">
  <defs>
    <style>
      .cls-1, .cls-2, .cls-3 {
        fill: none;
        stroke: #9f8954;
        stroke-miterlimit: 133.33;
      }

      .cls-1, .cls-3 {
        stroke-linecap: round;
      }

      .cls-2, .cls-3 {
        stroke-width: 3px;
      }
    </style>
  </defs>
  <g>
    <path class="cls-2" d="M1.5,51.5C1.5,27.93,1.5,16.14,7.82,8.82,14.14,1.5,24.31,1.5,44.65,1.5s30.51,0,36.83,7.32c6.32,7.32,6.32,19.11,6.32,42.68v25c0,23.57,0,35.36-6.32,42.68-6.32,7.32-16.49,7.32-36.83,7.32s-30.51,0-36.83-7.32c-6.32-7.32-6.32-19.11-6.32-42.68v-25Z"/>
    <path class="cls-3" d="M60.83,107.75H28.47"/>
  </g>
  <path class="cls-1" d="M10.76,54.93v-14.8c0-13.95,0-20.93,4.9-25.26,4.9-4.33,12.77-4.33,28.53-4.33"/>
</svg>