<?xml version="1.0" encoding="UTF-8"?>
<svg id="Layer_1" data-name="Layer 1" xmlns="http://www.w3.org/2000/svg" viewBox="0 0 125.47 125.5">
  <defs>
    <style>
      .cls-1 {
        fill: #9f8954;
        stroke: #9f8954;
        stroke-miterlimit: 10;
        stroke-width: .5px;
      }
    </style>
  </defs>
  <path class="cls-1" d="M25.52,43.34c-.19-.25-.48-.39-.79-.39h0c-.31,0-.6.14-.79.38l-4.36,5.42-2.03-1.47,5.5-6.67c.15-.18.23-.41.23-.65l-.05-9.54c0-.41-.25-.78-.63-.94-.13-.05-.26-.08-.39-.08-.26,0-.52.1-.72.3l-6.5,6.45c-.16.16-.27.37-.29.6l-1.12,8.99-2.39-.47.78-6.69c.04-.31-.07-.61-.29-.83-.19-.19-.45-.3-.72-.3-.03,0-.07,0-.1,0l-6.81.7-.46-2.48,8.74-.89c.23-.02.45-.13.62-.29l6.68-6.72c.29-.29.38-.73.22-1.11-.16-.38-.53-.63-.94-.63h-9.3c-.23,0-.45.07-.63.21l-7.02,5.53-1.43-2.03,5.42-4.19c.25-.19.39-.48.39-.8,0-.31-.14-.61-.38-.8L.52,19.57l1.48-2.05,6.73,5.5c.18.15.41.23.64.23h9.5c.41,0,.78-.24.94-.62.16-.38.07-.82-.22-1.11l-6.47-6.53c-.16-.16-.37-.27-.6-.29l-8.99-1.07.46-2.45,6.69.78s.08,0,.12,0c.27,0,.52-.1.71-.29.22-.22.33-.52.3-.83l-.7-6.81,2.48-.46.89,8.74c.02.23.13.45.3.62l6.73,6.69c.19.19.45.3.72.3.13,0,.27-.03.39-.08.38-.16.63-.53.63-.94v-9.3c-.01-.23-.09-.45-.23-.63l-5.52-6.98,2.04-1.48,4.17,5.41c.19.25.48.39.79.4h.01c.31,0,.6-.14.79-.38L29.68.53l2.04,1.48-5.51,6.66c-.15.18-.23.41-.23.65l.02,9.58c0,.41.25.78.63.94.13.05.26.08.39.08.26,0,.52-.1.72-.3l6.52-6.47c.16-.16.27-.37.29-.6l1.06-8.97,2.47.47-.78,6.66c-.04.31.07.61.29.83.19.2.45.3.72.3.03,0,.07,0,.1,0l6.79-.7.44,2.46-8.71.91c-.23.02-.45.13-.62.29l-6.69,6.73c-.29.29-.38.73-.22,1.11.16.38.53.63.94.63,0,0,9.3-.01,9.3-.01.23,0,.45-.08.63-.22l7.04-5.53,1.44,2-5.43,4.25c-.24.19-.39.48-.39.79s.14.6.37.8l5.43,4.42-1.47,1.97-6.68-5.5c-.18-.15-.41-.23-.65-.23h-9.58c-.41,0-.78.26-.94.63-.16.38-.07.81.21,1.11l6.39,6.48c.16.16.37.27.6.3l9.09,1.14-.48,2.44-6.78-.77s-.08,0-.11,0c-.27,0-.53.11-.72.3-.22.22-.33.53-.29.83l.79,6.82-2.47.42-.89-8.75c-.02-.23-.13-.45-.3-.62l-6.72-6.68c-.19-.19-.45-.3-.72-.3-.13,0-.26.03-.39.08-.38.16-.63.53-.63.94v9.29c0,.23.08.45.22.63l5.52,6.98-2.03,1.47-4.18-5.41Z"/>
  <rect class="cls-1" x="46.81" y="112.45" width="78.41" height="2.2" transform="translate(172.03 227.11) rotate(180)"/>
  <path class="cls-1" d="M22.48,125.25c-.53,0-1.06-.35-1.06-.85l-.02-8.73c0-.56-.46-1.01-1.02-1.01H.25s0-2.2,0-2.2h20.13c.56,0,1.02-.45,1.02-1.01l.02-8.73c0-.5.53-.85,1-.85h8.56c.34,0,.6.1.79.29s.31.48.31.8v8.48c-.01.27.09.53.28.72.19.19.45.3.72.3h7.45s0,2.2,0,2.2h-7.44c-.56,0-1.02.46-1.02,1.02l-.02,8.73c0,.43-.43.81-.96.85,0,0-8.61,0-8.61,0ZM24.62,104.07c-.56,0-1.02.45-1.02,1.02v16.94c0,.56.45,1.02,1.02,1.02h4.23c.56,0,1.02-.45,1.02-1.02v-16.94c0-.56-.45-1.02-1.02-1.02h-4.23Z"/>
  <path class="cls-1" d="M100.84,36.4c-6.49,0-11.77-5.28-11.77-11.77s5.28-11.77,11.77-11.77,11.77,5.28,11.77,11.77-5.28,11.77-11.77,11.77ZM100.84,15.22c-5.19,0-9.41,4.22-9.41,9.41s4.22,9.41,9.41,9.41,9.41-4.22,9.41-9.41-4.22-9.41-9.41-9.41Z"/>
  <rect class="cls-1" x="84.68" y="36.37" width="2.27" height="6.57" transform="translate(118.45 128.38) rotate(-135)"/>
  <rect class="cls-1" x="112.57" y="38.52" width="6.57" height="2.27" transform="translate(169.72 149.63) rotate(-134.99)"/>
  <rect class="cls-1" x="82.53" y="8.49" width="6.57" height="2.27" transform="translate(139.69 77.11) rotate(-134.99)"/>
  <polygon class="cls-1" points="112.74 11.13 117.3 6.57 118.88 8.06 114.35 12.73 112.74 11.13"/>
  <rect class="cls-1" x="76.45" y="23.54" width="6.43" height="2.2" transform="translate(159.33 49.28) rotate(180)"/>
  <rect class="cls-1" x="118.79" y="23.54" width="6.43" height="2.2" transform="translate(244.01 49.28) rotate(180)"/>
  <rect class="cls-1" x="99.74" y=".25" width="2.2" height="6.43" transform="translate(201.67 6.93) rotate(180)"/>
  <rect class="cls-1" x="99.74" y="42.59" width="2.2" height="6.43" transform="translate(201.67 91.62) rotate(180)"/>
  <g>
    <path class="cls-1" d="M22.48,82.91c-.53,0-1.06-.35-1.06-.85l-.02-8.73c0-.56-.46-1.01-1.02-1.01H.25s0-2.2,0-2.2h20.13c.56,0,1.02-.45,1.02-1.01l.02-8.73c0-.5.53-.85,1-.85h8.56c.34,0,.6.1.79.29s.31.48.31.8v8.48c-.01.27.09.53.28.72.19.19.45.3.72.3h7.45s0,2.2,0,2.2h-7.44c-.56,0-1.02.46-1.02,1.02l-.02,8.73c0,.43-.43.81-.96.85,0,0-8.61,0-8.61,0ZM24.62,61.73c-.56,0-1.02.45-1.02,1.02v16.94c0,.56.45,1.02,1.02,1.02h4.23c.56,0,1.02-.45,1.02-1.02v-16.94c0-.56-.45-1.02-1.02-1.02h-4.23Z"/>
    <rect class="cls-1" x="46.81" y="70.11" width="78.41" height="2.2" transform="translate(172.03 142.43) rotate(180)"/>
  </g>
  <g>
    <rect class="cls-1" x="82.8" y="91.28" width="42.42" height="2.2" transform="translate(208.02 184.77) rotate(180)"/>
    <path class="cls-1" d="M58.47,104.08c-.32,0-.56-.09-.74-.27-.23-.23-.37-.63-.36-1.09l.02-8.22c0-.27-.11-.53-.3-.72s-.45-.3-.72-.3H.26s0-2.2,0-2.2h56.1c.56,0,1.02-.45,1.02-1.01l.03-8.73c0-.5.53-.85,1.01-.85h8.56c.34,0,.6.1.79.29.2.2.31.48.31.8v8.48c-.01.27.09.53.28.72.19.19.45.3.72.3h7.45s0,2.2,0,2.2h-7.44c-.56,0-1.02.46-1.02,1.02l-.02,8.73c0,.44-.45.82-.99.85h-8.59ZM60.61,82.9c-.56,0-1.02.45-1.02,1.02v16.94c0,.56.45,1.02,1.02,1.02h4.23c.56,0,1.02-.45,1.02-1.02v-16.94c0-.56-.45-1.02-1.02-1.02h-4.23Z"/>
  </g>
</svg>