<?xml version="1.0" encoding="UTF-8"?>
<svg id="Layer_1" data-name="Layer 1" xmlns="http://www.w3.org/2000/svg" viewBox="0 0 126 126">
  <defs>
    <style>
      .cls-1 {
        fill: none;
        stroke-linecap: round;
      }

      .cls-1, .cls-2 {
        stroke: #9f8954;
        stroke-miterlimit: 10;
      }

      .cls-2 {
        fill: #9f8954;
      }
    </style>
  </defs>
  <g>
    <path class="cls-2" d="M2.7,125.5c-1.21,0-2.2-.98-2.2-2.2V2.7C.5,1.48,1.48.5,2.7.5h49.24c1.21,0,2.2.98,2.2,2.2v16.06c0,21.67-13.04,40.84-33.22,48.84l-4.41,1.75c-.86.34-.91,1.55-.07,1.95l4.27,2.07c15.11,7.31,24.87,22.85,24.87,39.59v10.35c0,1.21-.98,2.2-2.2,2.2H2.7ZM3.83,123.24h38.42c.59,0,1.07-.48,1.07-1.07v-9.22c0-21.27-15.93-39.08-37.06-41.43l-2.31-.26c-.63-.07-1.19.42-1.19,1.06v49.84c0,.59.48,1.07,1.07,1.07ZM2.76,67.94c0,.63.54,1.12,1.16,1.06l2.27-.21c25.62-2.32,45.68-24.3,45.68-50.04V3.83c0-.59-.48-1.07-1.07-1.07H3.83c-.59,0-1.07.48-1.07,1.07v64.11Z"/>
    <path class="cls-2" d="M82.62,125.5c-1.21,0-2.2-.98-2.2-2.2v-10.35c0-16.74,9.76-32.28,24.87-39.59l4.27-2.07c.84-.41.79-1.61-.07-1.95l-4.41-1.75c-20.18-8-33.23-27.17-33.23-48.84V2.7c0-1.21.98-2.2,2.2-2.2h49.24c1.21,0,2.2.98,2.2,2.2v120.6c0,1.21-.98,2.2-2.2,2.2h-40.68ZM119.74,71.52c-21.13,2.35-37.06,20.16-37.06,41.43v9.22c0,.59.48,1.07,1.07,1.07h38.42c.59,0,1.07-.48,1.07-1.07v-49.84c0-.64-.55-1.13-1.19-1.06l-2.31.26ZM74.12,18.76c0,25.74,20.07,47.72,45.68,50.04l2.27.21c.63.06,1.16-.44,1.16-1.06V3.83c0-.59-.48-1.07-1.07-1.07h-46.98c-.59,0-1.07.48-1.07,1.07v14.93Z"/>
  </g>
  <path class="cls-1" d="M6.89,32.41V7.06c0-.15.13-.28.28-.28h38.08"/>
  <path class="cls-1" d="M90.5,118.73h26.83c.61,0,1.1-.49,1.1-1.1v-38.38"/>
</svg>