<?xml version="1.0" encoding="UTF-8"?>
<svg id="Layer_1" data-name="Layer 1" xmlns="http://www.w3.org/2000/svg" viewBox="0 0 128 128">
  <defs>
    <style>
      .cls-1 {
        stroke-width: 3px;
      }

      .cls-1, .cls-2, .cls-3 {
        fill: none;
        stroke: #9f8954;
        stroke-linecap: round;
        stroke-linejoin: round;
      }

      .cls-3 {
        stroke-width: 5px;
      }
    </style>
  </defs>
  <line class="cls-1" x1="1.5" y1="126.5" x2="126.5" y2="126.5"/>
  <path class="cls-1" d="M105.67,126.5V23.72c0-7.78,0-11.67-1.51-14.64-1.33-2.61-3.46-4.74-6.07-6.07-2.97-1.51-6.86-1.51-14.64-1.51h-38.89c-7.78,0-11.67,0-14.64,1.51-2.61,1.33-4.74,3.46-6.07,6.07-1.51,2.97-1.51,6.86-1.51,14.64v102.78"/>
  <path class="cls-2" d="M80.19,8.39h-32.37c-6.48,0-9.71,0-12.19,1.43-2.18,1.26-3.94,3.27-5.05,5.74-1.26,2.81-1.26,6.48-1.26,13.83v97.11"/>
  <path class="cls-2" d="M92.37,9.82c-2.47-1.43-5.71-1.43-12.19-1.43"/>
  <path class="cls-2" d="M97.43,15.56c-1.11-2.47-2.88-4.48-5.05-5.74"/>
  <line class="cls-2" x1="98.69" y1="126.5" x2="98.69" y2="29.39"/>
  <line class="cls-3" x1="84.83" y1="64" x2="84.9" y2="64"/>
</svg>