<?xml version="1.0" encoding="UTF-8"?>
<svg id="Layer_1" data-name="Layer 1" xmlns="http://www.w3.org/2000/svg" viewBox="0 0 128.77 125.75">
  <defs>
    <style>
      .cls-1 {
        fill: #9f8954;
        stroke-width: .75px;
      }

      .cls-1, .cls-2, .cls-3 {
        stroke: #9f8954;
        stroke-miterlimit: 10;
      }

      .cls-1, .cls-3 {
        fill-rule: evenodd;
      }

      .cls-2, .cls-3 {
        fill: none;
        stroke-linecap: round;
      }
    </style>
  </defs>
  <path class="cls-1" d="M1.37,125.38c-.27,0-.52-.1-.71-.29-.24-.23-.34-.6-.26-.92l7.79-30.44c.04-.17.14-.33.26-.45L98.75,5.12c3.13-3.06,7.3-4.74,11.73-4.74s8.59,1.68,11.72,4.74l1.34,1.3c3.13,3.06,4.86,7.13,4.86,11.45s-1.72,8.39-4.86,11.45L33.25,117.48c-.13.12-.29.21-.46.26l-31.17,7.61c-.08.02-.16.03-.24.03ZM10.06,94.46l-7.32,28.6,29.3-7.15L107.9,41.84l-21.55-21.86L10.06,94.46ZM110.48,2.32c-3.9,0-7.56,1.48-10.32,4.17l-12.4,12.11,21.55,21.87,12.82-12.52c5.69-5.55,5.69-14.59,0-20.15l-1.34-1.31c-2.75-2.69-6.42-4.17-10.32-4.17Z"/>
  <polyline class="cls-3" points="5.94 119.22 12.52 96.47 41.93 68.12"/>
  <line class="cls-2" x1="91.4" y1="18.04" x2="109.51" y2="36.32"/>
  <line class="cls-2" x1="74.06" y1="70.2" x2="103.14" y2="41.89"/>
</svg>