<?xml version="1.0" encoding="UTF-8"?>
<svg id="Layer_1" data-name="Layer 1" xmlns="http://www.w3.org/2000/svg" viewBox="0 0 146.77 118">
  <defs>
    <style>
      .cls-1 {
        fill: #9f8954;
      }

      .cls-1, .cls-2 {
        fill-rule: evenodd;
      }

      .cls-3, .cls-2 {
        fill: none;
        stroke: #9f8954;
        stroke-linecap: round;
        stroke-miterlimit: 10;
      }
    </style>
  </defs>
  <path class="cls-1" d="M47.36,118c-4.29,0-8.33-1.71-11.38-4.82l-31.23-31.87c-6.34-6.44-6.33-16.94,0-23.41,3.04-3.09,7.08-4.79,11.38-4.79s8.34,1.7,11.39,4.8l17.34,17.68c.65.67,1.56,1.05,2.5,1.05s1.84-.38,2.5-1.05L119.26,4.83c3.05-3.11,7.09-4.83,11.38-4.83s8.33,1.71,11.38,4.82c6.34,6.44,6.34,16.94,0,23.42L58.74,113.17c-3.05,3.11-7.09,4.83-11.38,4.83ZM16.13,56.09c-3.57,0-6.91,1.41-9.43,3.96-5.01,5.15-5.18,13.36-.4,18.68.03.03,10.67,10.89,31.63,32.27,2.52,2.56,5.88,3.97,9.44,3.97s6.92-1.41,9.43-3.96c.52-.55,14.79-15.11,79.82-81.41l3.47-3.53c5.15-5.29,5.14-13.85,0-19.08-2.52-2.56-5.87-3.96-9.44-3.96s-6.92,1.41-9.43,3.96L51.19,78.4c-1.02,1.04-2.38,1.61-3.83,1.61s-2.81-.57-3.83-1.61l-17.96-18.34c-2.52-2.56-5.88-3.97-9.44-3.97h0Z"/>
  <path class="cls-2" d="M19.04,60.42l22.44,21c1.59,1.49,3.69,2.32,5.87,2.32h.11c2.26,0,4.43-.89,6.03-2.48l51.27-51.89"/>
  <line class="cls-3" x1="57.87" y1="105.52" x2="75.01" y2="88.24"/>
</svg>