<?xml version="1.0" encoding="UTF-8"?>
<svg id="Layer_1" data-name="Layer 1" xmlns="http://www.w3.org/2000/svg" viewBox="0 0 124.01 128">
  <defs>
    <style>
      .cls-1 {
        stroke-width: 3px;
      }

      .cls-1, .cls-2 {
        fill: none;
        stroke: #9f8954;
        stroke-miterlimit: 10;
      }

      .cls-2 {
        stroke-linecap: round;
      }
    </style>
  </defs>
  <g>
    <path class="cls-1" d="M25,35.63l20.4,20.45c3.5-3.36,6.54-6.28,8.82-8.46l-20.58-20.63-2.52-11.16L12.75,4.67l-5.04,5.04-5.04,5.04,11.16,18.36,11.16,2.52Z"/>
    <path class="cls-1" d="M86.99,68.96l30.17,30.07c5.56,5.56,5.56,14.57,0,20.13-5.56,5.56-14.57,5.56-20.13,0l-30.17-30.07,20.13-20.13Z"/>
    <path class="cls-1" d="M111.8,51.16c10.39-9.43,12.12-20.14,9.8-29.17-.07-.72-.24-1.32-.87-1.77l-2.09-1.71c-.36-.34-.85-.5-1.34-.46-.49.05-.94.3-1.23.7l-12.02,15.63c-.34.46-.88.72-1.45.71l-4.36.32c-.37-.01-.74-.15-1.03-.38l-8.43-7.14c-.34-.28-.57-.68-.63-1.11l-.52-3.95c-.06-.43.05-.88.31-1.24l11.26-15.29c.51-.7.41-1.67-.22-2.27l-2.73-2.14c-.53-.5-1.14-.43-1.97-.27-7.77,1.53-21.05,9.06-24.42,19.47-2.97,9.16-1.93,15.62-1.93,15.62,0,5.16-1.7,10.14-3.78,12.22L5.49,105.24c-.11.1-.23.21-.34.32-4.84,4.84-4.84,12.71-.16,17.39,4.68,4.68,12.66,4.8,17.51-.04.23-.23.44-.46.64-.7l56.56-61.14c6.96-6.2,20.73.4,32.09-9.91Z"/>
  </g>
  <line class="cls-2" x1="10.39" y1="106.76" x2="42.97" y2="74.93"/>
  <polyline class="cls-2" points="26 31.61 16.33 29.41 7.08 15.36 12.31 10.18"/>
</svg>