<?xml version="1.0" encoding="UTF-8"?>
<svg id="Layer_1" data-name="Layer 1" xmlns="http://www.w3.org/2000/svg" viewBox="0 0 83.08 125">
  <defs>
    <style>
      .cls-1 {
        fill: none;
        stroke: #9f8954;
        stroke-linecap: round;
        stroke-miterlimit: 10;
      }

      .cls-2 {
        fill: #9f8954;
      }
    </style>
  </defs>
  <path class="cls-2" d="M41.54,125c-2.37,0-4.51-1.33-5.61-3.47l-.43-.84h-2.85c-6.5,0-11.8-5.29-11.8-11.8v-23.87c-.04-1.69-.54-3.31-1.58-5.14-.84-1.48-2.09-3.15-3.93-5.26-.68-.78-1.41-1.59-2.15-2.41-2.63-2.91-5.35-5.91-7.41-9.55l-.64-1.14h-.01C1.77,55.43,0,48.54,0,41.54c0-11.1,4.32-21.53,12.17-29.37C20.01,4.32,30.44,0,41.54,0s21.54,4.32,29.38,12.17c7.85,7.84,12.17,18.28,12.17,29.38,0,6.83-1.69,13.55-4.89,19.54l-.92,1.63c-1.99,3.52-4.69,6.52-7.08,9.17-2.44,2.68-4.96,5.46-6.39,8.01-1.04,1.83-1.54,3.45-1.57,5.11v23.9c0,6.5-5.29,11.79-11.8,11.8h-2.85l-.43.84c-1.1,2.14-3.24,3.47-5.61,3.47ZM23.94,108.9c0,2.32.91,4.51,2.55,6.16,1.65,1.65,3.84,2.55,6.16,2.56h17.78c2.32,0,4.51-.91,6.16-2.55l2.02-2.02-34.67-7.37v3.23ZM23.94,104.61l34.78,7.4.28-1.56c.1-.58.15-1.07.15-1.55v-8.32l-35.21-7.49v11.53ZM23.94,92.03l35.21,7.49v-13.01H23.94v5.53ZM41.54,3.08c-10.27,0-19.93,4-27.2,11.27C7.08,21.61,3.08,31.27,3.08,41.54c0,6.88,1.85,13.64,5.34,19.53l.06.1c1.64,2.97,4.11,5.79,6.7,8.65l.67.75c2.21,2.45,4.5,4.99,6.11,7.8.71,1.25,1.24,2.56,1.58,3.9l.29,1.16h35.42l.29-1.16c.34-1.34.87-2.65,1.58-3.9,1.22-2.14,2.86-4.11,4.29-5.76.66-.76,1.34-1.51,2.02-2.26,2.67-2.96,5.43-6.01,7.21-9.24,3.51-5.92,5.35-12.67,5.35-19.56,0-10.27-4-19.93-11.27-27.2-7.27-7.26-16.92-11.26-27.2-11.27h0Z"/>
  <path class="cls-1" d="M74.22,41.8c0-8.73-3.4-16.93-9.57-23.1-6.17-6.17-14.38-9.57-23.1-9.57h0c-8.73,0-16.93,3.4-23.1,9.57-6.17,6.17-9.57,14.38-9.57,23.1,0,5.85,1.57,11.58,4.53,16.59l.05.09c1.4,2.52,3.49,4.92,5.69,7.34l.57.63c1.88,2.08,3.82,4.24,5.19,6.63"/>
</svg>