<?xml version="1.0" encoding="UTF-8"?>
<svg id="Layer_1" data-name="Layer 1" xmlns="http://www.w3.org/2000/svg" viewBox="0 0 109.04 128.62">
  <defs>
    <style>
      .cls-1, .cls-2 {
        fill: none;
        stroke: #9f8954;
        stroke-linecap: round;
        stroke-miterlimit: 133.33;
      }

      .cls-2 {
        stroke-width: 3px;
      }
    </style>
  </defs>
  <path class="cls-2" d="M49.89,125.49c1.47.86,2.2,1.28,3.24,1.51.8.17,1.98.17,2.78,0,1.04-.22,1.77-.65,3.24-1.51,12.91-7.53,48.39-31.19,48.39-63.72V25.98c0-3.7,0-5.55-.71-6.96-.63-1.25-1.62-2.25-2.86-2.89-1.4-.73-3.28-.75-7.04-.8-19.69-.23-31.05-1.86-42.41-13.22-11.36,11.36-22.71,12.98-42.41,13.22-3.76.04-5.64.07-7.04.8-1.24.65-2.23,1.64-2.86,2.89-.71,1.41-.71,3.26-.71,6.96v35.79c0,32.53,35.48,56.19,48.39,63.72Z"/>
  <path class="cls-1" d="M98.96,32.23c0-3.1,0-4.65-.6-5.83-.53-1.05-1.35-1.88-2.4-2.42-1.17-.61-2.75-.63-5.9-.67-16.51-.2-26.03-1.56-35.54-11.08-9.52,9.52-19.04,10.88-35.54,11.08-3.15.04-4.73.06-5.9.67-1.04.54-1.87,1.38-2.4,2.42-.6,1.18-.6,2.73-.6,5.83v30"/>
</svg>